<?xml version="1.0" encoding="utf-8"?><svg xmlns="http://www.w3.org/2000/svg" xmlns:xlink="http://www.w3.org/1999/xlink"><symbol viewBox="0 0 16 16" id="inst" xmlns="http://www.w3.org/2000/svg"><path d="M5.75 8c0-1.38 1.176-2.5 2.625-2.5 1.45 0 2.626 1.12 2.626 2.5s-1.176 2.5-2.626 2.5S5.751 9.38 5.751 8zM4.332 8c0 2.127 1.81 3.851 4.044 3.851 2.234 0 4.044-1.724 4.044-3.851s-1.81-3.851-4.044-3.851C6.142 4.149 4.331 5.873 4.331 8zm7.303-4.004a.87.87 0 0 0 .16.5.936.936 0 0 0 .423.332.989.989 0 0 0 .546.051.961.961 0 0 0 .484-.246.887.887 0 0 0 .26-.46.86.86 0 0 0-.054-.52.91.91 0 0 0-.348-.405.979.979 0 0 0-.525-.152.97.97 0 0 0-.669.264.88.88 0 0 0-.277.636zm-6.44 10.109c-.768-.034-1.185-.155-1.463-.258a2.463 2.463 0 0 1-.906-.561 2.306 2.306 0 0 1-.589-.862c-.108-.264-.236-.662-.27-1.393-.039-.79-.046-1.028-.046-3.03 0-2.004.008-2.24.045-3.032.035-.731.164-1.128.271-1.393.143-.35.314-.6.59-.862.275-.263.537-.426.905-.561.277-.103.695-.225 1.463-.258.83-.037 1.08-.044 3.181-.044 2.102 0 2.352.008 3.183.044.768.033 1.184.156 1.462.258.368.135.63.298.906.56.276.263.446.513.59.863.107.264.235.662.27 1.393.038.791.046 1.028.046 3.031s-.008 2.24-.046 3.031c-.035.731-.163 1.129-.27 1.393-.144.35-.314.6-.59.862a2.462 2.462 0 0 1-.906.56c-.277.104-.694.226-1.462.259-.83.036-1.08.043-3.183.043-2.103 0-2.351-.007-3.181-.043zM5.128.545c-.838.037-1.41.163-1.911.349a3.888 3.888 0 0 0-1.395.865 3.652 3.652 0 0 0-.909 1.328C.72 3.564.586 4.11.548 4.907.508 5.708.5 5.964.5 8s.009 2.292.048 3.092c.038.799.17 1.344.365 1.82.202.494.47.913.909 1.33a3.9 3.9 0 0 0 1.395.864c.501.186 1.073.312 1.911.349.84.036 1.109.045 3.247.045 2.139 0 2.408-.008 3.247-.045s1.411-.163 1.912-.349a3.898 3.898 0 0 0 1.395-.865 3.66 3.66 0 0 0 .908-1.328c.195-.477.328-1.023.366-1.82.038-.801.047-1.056.047-3.093s-.009-2.292-.047-3.092c-.038-.799-.171-1.344-.366-1.82a3.675 3.675 0 0 0-.908-1.33 3.878 3.878 0 0 0-1.395-.864c-.5-.186-1.074-.313-1.911-.349C10.783.51 10.515.5 8.376.5S5.969.508 5.128.545z"/></symbol><symbol viewBox="0 0 18 18" id="search" xmlns="http://www.w3.org/2000/svg"><path d="M7.698 15.395a7.648 7.648 0 0 0 4.712-1.625L16.64 18 18 16.64l-4.23-4.23a7.65 7.65 0 0 0 1.625-4.713C15.395 3.453 11.942 0 7.698 0 3.453 0 0 3.453 0 7.697s3.453 7.698 7.698 7.698zm0-13.47a5.779 5.779 0 0 1 5.773 5.772 5.779 5.779 0 0 1-5.773 5.773 5.779 5.779 0 0 1-5.774-5.773 5.779 5.779 0 0 1 5.774-5.773z"/></symbol><symbol viewBox="0 0 24 24" id="shop" xmlns="http://www.w3.org/2000/svg"><path d="M17.857 4.8V2.4H8.333v2.4h9.524zM7.143 19.2c-.632 0-1.237.253-1.684.703a2.41 2.41 0 0 0 0 3.394 2.372 2.372 0 0 0 3.367 0 2.41 2.41 0 0 0 0-3.394 2.372 2.372 0 0 0-1.683-.703zm11.905 0c-.632 0-1.237.253-1.684.703a2.41 2.41 0 0 0 0 3.394 2.372 2.372 0 0 0 3.367 0 2.41 2.41 0 0 0 0-3.394 2.372 2.372 0 0 0-1.683-.703zM7.345 15.3l.036-.144L8.452 13.2h8.87c.892 0 1.678-.492 2.083-1.236L24 3.552 21.929 2.4h-.012l-1.31 2.4-3.286 6H8.964l-.154-.324L6.143 4.8 5.012 2.4 3.892 0H0v2.4h2.381l4.286 9.108-1.607 2.94a2.34 2.34 0 0 0-.298 1.152c0 .636.25 1.247.697 1.697.447.45 1.052.703 1.684.703h14.286v-2.4H7.643a.304.304 0 0 1-.298-.3z"/></symbol><symbol viewBox="0 0 18 20" id="user" xmlns="http://www.w3.org/2000/svg"><path d="M9.012.936c-2.757 0-5 2.243-5 5s2.243 5 5 5c2.758 0 5-2.243 5-5s-2.242-5-5-5zm0 8c-1.654 0-3-1.346-3-3s1.346-3 3-3 3 1.346 3 3-1.346 3-3 3zm9 11v-1c0-3.86-3.14-7-7-7h-4c-3.86 0-7 3.14-7 7v1h2v-1c0-2.757 2.243-5 5-5h4c2.758 0 5 2.243 5 5v1h2z"/></symbol><symbol viewBox="0 0 30 30" id="viber" xmlns="http://www.w3.org/2000/svg"><path d="M30 15.13c0 7.92-6.593 14.338-14.727 14.338-2.583 0-5.009-.647-7.12-1.784L0 30.226l2.658-7.692A13.987 13.987 0 0 1 .545 15.13C.545 7.212 7.139.792 15.273.792 23.408.792 30 7.212 30 15.13zM15.273 3.076C8.445 3.076 2.89 8.484 2.89 15.13c0 2.638.876 5.081 2.358 7.068l-1.547 4.477 4.759-1.484a12.545 12.545 0 0 0 6.812 1.994c6.827 0 12.382-5.407 12.382-12.054S22.1 3.076 15.273 3.076zm7.437 15.357c-.091-.147-.332-.235-.692-.41-.362-.176-2.137-1.027-2.467-1.143-.331-.118-.572-.177-.813.175-.24.352-.932 1.143-1.143 1.378-.21.235-.421.264-.782.088-.361-.175-1.524-.547-2.903-1.744-1.073-.931-1.798-2.082-2.008-2.434-.21-.351-.022-.541.158-.716.163-.158.361-.41.542-.616.18-.205.24-.351.36-.586.121-.234.061-.44-.03-.616-.09-.175-.812-1.905-1.113-2.608-.3-.704-.601-.587-.812-.587-.21 0-.451-.029-.692-.029-.24 0-.632.088-.963.44-.33.351-1.263 1.202-1.263 2.93 0 1.73 1.293 3.401 1.474 3.636.18.234 2.497 3.898 6.167 5.305 3.67 1.406 3.67.937 4.332.878.661-.058 2.135-.85 2.437-1.67.3-.821.3-1.525.21-1.671z"/></symbol><symbol viewBox="0 0 17 10" id="vk" xmlns="http://www.w3.org/2000/svg"><path clip-rule="evenodd" d="M16.871 1.16c.115-.38 0-.66-.545-.66H14.52c-.459 0-.67.242-.785.508 0 0-.918 2.226-2.218 3.672-.421.419-.612.552-.842.552-.115 0-.28-.133-.28-.514V1.16c0-.457-.134-.66-.516-.66H7.042c-.287 0-.46.212-.46.413 0 .433.65.533.718 1.75v2.645c0 .58-.105.685-.335.685-.612 0-2.1-2.236-2.983-4.795C3.809.701 3.635.5 3.174.5H1.369C.853.5.75.742.75 1.008c0 .476.612 2.835 2.85 5.956 1.491 2.13 3.593 3.286 5.505 3.286 1.148 0 1.29-.257 1.29-.699v-1.61c0-.513.108-.616.471-.616.268 0 .727.133 1.798 1.16 1.224 1.218 1.426 1.765 2.114 1.765h1.805c.516 0 .774-.257.625-.763-.162-.505-.747-1.237-1.522-2.105-.421-.494-1.052-1.027-1.243-1.294-.268-.342-.192-.494 0-.799 0 0 2.199-3.082 2.428-4.129z"/></symbol></svg>